# File created by Blade
# Date/Time:  Wed Jan 21 19:19:27 2015
#---------------------------------------------------------
:version 1.10
:name HOM
:units
  mass 1.0
  length 1.000000
  angle deg
:documentation
     Acclaim Skeleton File
:root
   axis xyz
   order TX TY TZ RX RY RZ
   position 0.000000 0.000000 0.000000
   orientation 0 0 0
:bonedata
   begin
      id 1
      name RightUpLeg_dum
      direction -1.000000 0.000000 0.000000
      length 3.693983
      axis 0.0 0.0 0.0 xyz
   end
   begin
      id 2
      name LeftUpLeg_dum
      direction 1.000000 0.000000 0.000000
      length 3.693983
      axis 0.0 0.0 0.0 xyz
   end
   begin
      id 3
      name Spine_dum
      direction 0.000000 1.000000 0.000000
      length 2.392956
      axis 0.0 0.0 0.0 xyz
   end
   begin
      id 4
      name RightUpLeg
      direction 0.000000 -1.000000 0.000000
      length 15.795667
      axis 0.0 0.0 0.0 xyz
      dof rx ry rz
   end
   begin
      id 5
      name RightLeg
      direction 0.000000 -1.000000 0.000000
      length 14.766989
      axis 0.0 0.0 0.0 xyz
      dof rx ry rz
   end
   begin
      id 6
      name RightFoot
      direction 0.000000 -0.258819 0.965926
      length 4.962790
      axis 15.0 0.0 0.0 xyz
      dof rx ry rz
   end
   begin
      id 7
      name RightToeBase
      direction 0.000000 0.000000 1.000000
      length 2.952750
      axis 0.0 0.0 0.0 xyz
      dof rx ry rz
   end
   begin
      id 8
      name LeftUpLeg
      direction 0.000000 -1.000000 0.000000
      length 15.795667
      axis 0.0 0.0 0.0 xyz
      dof rx ry rz
   end
   begin
      id 9
      name LeftLeg
      direction 0.000000 -1.000000 0.000000
      length 14.766989
      axis 0.0 0.0 0.0 xyz
      dof rx ry rz
   end
   begin
      id 10
      name LeftFoot
      direction 0.000000 -0.258819 0.965926
      length 4.962790
      axis 15.0 0.0 0.0 xyz
      dof rx ry rz
   end
   begin
      id 11
      name LeftToeBase
      direction 0.000000 0.000000 1.000000
      length 2.952750
      axis 0.0 0.0 0.0 xyz
      dof rx ry rz
   end
   begin
      id 12
      name Spine
      direction 0.000000 1.000000 0.000000
      length 0.000000
      axis 0.0 0.0 0.0 xyz
      dof rx ry rz
   end
   begin
      id 13
      name Spine_dum1
      direction 0.000000 1.000000 0.000000
      length 13.207411
      axis 0.0 0.0 0.0 xyz
   end
   begin
      id 14
      name Spine_dum2
      direction 0.000000 1.000000 0.000000
      length 13.207411
      axis 0.0 0.0 0.0 xyz
   end
   begin
      id 15
      name Spine_dum3
      direction 0.000000 1.000000 0.000000
      length 19.250100
      axis 0.0 0.0 0.0 xyz
   end
   begin
      id 16
      name RightShoulder
      direction -1.000000 0.000000 0.000000
      length 8.140465
      axis 0.0 0.0 90.0 xyz
      dof rx ry rz
   end
   begin
      id 17
      name RightArm
      direction -1.000000 0.000000 0.000000
      length 10.649840
      axis 0.0 0.0 90.0 xyz
      dof rx ry rz
   end
   begin
      id 18
      name RightForeArm
      direction -1.000000 0.000000 0.000000
      length 8.304624
      axis 0.0 0.0 90.0 xyz
      dof ry rz rx
   end
   begin
      id 19
      name RightHand
      direction -1.000000 0.000000 0.000000
      length 0.000000
      axis 0.0 0.0 90.0 xyz
      dof rx ry rz
   end
   begin
      id 20
      name RightHand_dum1
      direction -1.000000 0.000000 0.000000
      length 3.937000
      axis 0.0 0.0 90.0 xyz
   end
   begin
      id 21
      name RightHand_dum2
      direction 0.000000 0.000000 0.000000
      length 0.000000
      axis 0.0 0.0 90.0 xyz
   end
   begin
      id 22
      name RightHandThumb1
      direction 0.000000 0.000000 1.000000
      length 3.937000
      axis 0.0 0.0 90.0 xyz
      dof rx rz ry
   end
   begin
      id 23
      name LeftShoulder
      direction 1.000000 0.000000 0.000000
      length 8.140465
      axis 0.0 0.0 -90.0 xyz
      dof rx ry rz
   end
   begin
      id 24
      name LeftArm
      direction 1.000000 0.000000 0.000000
      length 10.649840
      axis 0.0 0.0 -90.0 xyz
      dof rx ry rz
   end
   begin
      id 25
      name LeftForeArm
      direction 1.000000 0.000000 0.000000
      length 8.304624
      axis 0.0 0.0 -90.0 xyz
      dof ry rz rx
   end
   begin
      id 26
      name LeftHand
      direction 1.000000 0.000000 0.000000
      length 0.000000
      axis 0.0 0.0 -90.0 xyz
      dof rx ry rz
   end
   begin
      id 27
      name LeftHand_dum1
      direction 1.000000 0.000000 0.000000
      length 3.937000
      axis 0.0 0.0 -90.0 xyz
   end
   begin
      id 28
      name LeftHand_dum2
      direction 0.000000 0.000000 0.000000
      length 0.000000
      axis 0.0 0.0 -90.0 xyz
   end
   begin
      id 29
      name LeftHandThumb1
      direction 0.000000 0.000000 1.000000
      length 3.937000
      axis 0.0 0.0 -90.0 xyz
      dof rx rz ry
   end
   begin
      id 30
      name Head
      direction 0.000000 1.000000 0.000000
      length 4.527550
      axis 0.0 0.0 0.0 xyz
      dof rx ry rz
   end
:hierarchy
   begin
      root RightUpLeg_dum LeftUpLeg_dum Spine_dum
      RightUpLeg_dum RightUpLeg
      LeftUpLeg_dum LeftUpLeg
      Spine_dum Spine
      RightUpLeg RightLeg
      RightLeg RightFoot
      RightFoot RightToeBase
      LeftUpLeg LeftLeg
      LeftLeg LeftFoot
      LeftFoot LeftToeBase
      Spine Spine_dum1 Spine_dum2 Spine_dum3
      Spine_dum1 RightShoulder
      Spine_dum2 LeftShoulder
      Spine_dum3 Head
      RightShoulder RightArm
      RightArm RightForeArm
      RightForeArm RightHand
      RightHand RightHand_dum1 RightHand_dum2
      RightHand_dum2 RightHandThumb1
      LeftShoulder LeftArm
      LeftArm LeftForeArm
      LeftForeArm LeftHand
      LeftHand LeftHand_dum1 LeftHand_dum2
      LeftHand_dum2 LeftHandThumb1
   end

# File created by Blade
# Date/Time:  Wed Jan 21 19:19:18 2015
# Frame Rate: 120.000 fps
#------------------------------------------------------
:FULLY-SPECIFIED
:DEGREES
286
root -1.328793 15.536153 -2.681154 53.326735 -27.162418 18.558667
RightUpLeg -175.737233 -44.202463 36.435652
RightLeg 102.202914 -0.000000 -0.000000
RightFoot 0.293250 30.866919 28.258914
RightToeBase 23.258605 -0.000000 -0.000000
LeftUpLeg -33.798229 40.777974 15.950832
LeftLeg 10.126717 -0.000000 -0.000000
LeftFoot -22.095482 -3.186080 -26.402255
LeftToeBase 4.271006 -0.000000 -0.000000
Spine -34.098552 21.307632 18.259910
RightShoulder -11.286591 20.698249 -16.460020
RightArm -5.519221 -16.287067 61.246899
RightForeArm 8.950220 -0.000000 6.013367
RightHand 41.392883 -0.000000 -61.000108
RightHandThumb1 -24.326973 -0.000000 -32.862282
LeftShoulder -21.134983 -10.570720 62.416290
LeftArm 38.487162 -36.787831 -12.623847
LeftForeArm 11.118860 0.000000 11.805884
LeftHand -19.422680 -0.000000 18.556505
LeftHandThumb1 -26.253704 0.000000 33.147579
Head -30.771990 7.613206 32.518087
287
root -1.320998 15.540991 -2.662623 53.147874 -27.063069 18.652719
RightUpLeg -175.913740 -44.174991 36.604296
RightLeg 102.275329 -0.000000 -0.000000
RightFoot 0.454250 30.160733 28.423529
RightToeBase 23.637114 -0.000000 -0.000000
LeftUpLeg -33.677614 40.545304 16.075252
LeftLeg 10.196374 -0.000000 -0.000000
LeftFoot -22.183591 -3.137934 -26.338229
LeftToeBase 4.301345 -0.000000 -0.000000
Spine -34.056128 21.292972 18.358526
RightShoulder -11.287392 20.565506 -16.427710
RightArm -5.208118 -16.577847 61.059671
RightForeArm 9.512891 0.000000 5.385348
RightHand 42.003949 -0.000000 -61.064259
RightHandThumb1 -24.326973 -0.000000 -32.862282
LeftShoulder -21.287894 -10.850659 62.921472
LeftArm 39.236207 -37.483613 -12.546585
LeftForeArm 10.924280 -0.000000 11.766600
LeftHand -19.453087 -0.000000 18.990047
LeftHandThumb1 -26.253704 0.000000 33.147579
Head -31.025497 7.484983 33.443776
288
root -1.312804 15.546906 -2.644086 52.949754 -26.954745 18.709637
RightUpLeg -176.054384 -44.129589 36.786197
RightLeg 102.352297 -0.000000 -0.000000
RightFoot 0.650232 29.429181 28.640417
RightToeBase 24.054749 -0.000000 -0.000000
LeftUpLeg -33.516153 40.327495 16.253604
LeftLeg 10.279740 -0.000000 -0.000000
LeftFoot -22.283475 -3.101559 -26.294049
LeftToeBase 4.305317 -0.000000 -0.000000
Spine -33.960905 21.281250 18.517801
RightShoulder -11.291398 20.527409 -16.424410
RightArm -5.038306 -16.984769 60.897863
RightForeArm 9.911698 0.000000 4.914793
RightHand 42.406659 -0.000000 -61.258015
RightHandThumb1 -24.326973 -0.000000 -32.862282
LeftShoulder -21.447263 -11.180383 63.425294
LeftArm 40.008323 -38.162071 -12.495541
LeftForeArm 10.723278 -0.000000 11.743391
LeftHand -19.527944 -0.000000 19.320385
LeftHandThumb1 -26.253704 0.000000 33.147579
Head -31.286887 7.312471 34.336663
289
root -1.301668 15.554114 -2.624880 52.722655 -26.876430 18.787436
RightUpLeg -176.156012 -44.108984 36.914478
RightLeg 102.387678 -0.000000 -0.000000
RightFoot 0.914188 28.768229 29.036055
RightToeBase 24.601264 -0.000000 -0.000000
LeftUpLeg -33.329679 40.110345 16.400654
LeftLeg 10.351313 -0.000000 -0.000000
LeftFoot -22.370317 -3.074529 -26.275581
LeftToeBase 4.297038 -0.000000 -0.000000
Spine -33.863708 21.266541 18.645957
RightShoulder -11.389138 20.345811 -16.454688
RightArm -4.626157 -17.550899 60.741694
RightForeArm 10.194744 -0.000000 4.311787
RightHand 42.701194 -0.000000 -61.449037
RightHandThumb1 -24.326973 -0.000000 -32.862282
LeftShoulder -21.609946 -11.489161 63.942089
LeftArm 40.809282 -38.813321 -12.518988
LeftForeArm 10.663691 -0.000000 11.767292
LeftHand -19.553454 -0.000000 19.633751
LeftHandThumb1 -26.253704 0.000000 33.147579
Head -31.488412 7.073839 35.255399
290
root -1.290656 15.560776 -2.607280 52.494563 -26.800594 18.824424
RightUpLeg -176.209988 -44.084179 37.047335
RightLeg 102.394723 -0.000000 -0.000000
RightFoot 1.103245 28.209999 29.179902
RightToeBase 24.941978 -0.000000 -0.000000
LeftUpLeg -33.122179 39.918677 16.587826
LeftLeg 10.448451 -0.000000 -0.000000
LeftFoot -22.495692 -3.021153 -26.163061
LeftToeBase 4.283186 -0.000000 -0.000000
Spine -33.739844 21.256016 18.803217
RightShoulder -11.508373 20.256927 -16.495602
RightArm -4.328003 -18.151782 60.617596
RightForeArm 10.779558 0.000000 3.927523
RightHand 42.737095 -0.000000 -61.907207
RightHandThumb1 -24.326973 -0.000000 -32.862282
LeftShoulder -21.725148 -11.865713 64.398640
LeftArm 41.593899 -39.371258 -12.329032
LeftForeArm 10.541310 -0.000000 11.662097
LeftHand -19.588490 -0.000000 19.803478
LeftHandThumb1 -26.253704 0.000000 33.147579
Head -31.662420 6.770128 36.210467
291
root -1.279721 15.569969 -2.588056 52.229700 -26.762230 18.898596
RightUpLeg -176.230148 -44.088732 37.110939
RightLeg 102.359948 -0.000000 -0.000000
RightFoot 1.315739 27.724410 29.390872
RightToeBase 25.434301 -0.000000 -0.000000
LeftUpLeg -32.874684 39.722640 16.724743
LeftLeg 10.500713 -0.000000 -0.000000
LeftFoot -22.590143 -2.980458 -26.135357
LeftToeBase 4.378045 -0.000000 -0.000000
Spine -33.564036 21.231215 18.910120
RightShoulder -11.813921 20.215458 -16.582554
RightArm -3.925160 -18.849812 60.492159
RightForeArm 11.227226 -0.000000 3.511848
RightHand 42.959744 -0.000000 -61.851439
RightHandThumb1 -24.326973 -0.000000 -32.862282
LeftShoulder -21.973031 -12.338634 64.902051
LeftArm 42.433931 -39.757233 -12.092195
LeftForeArm 9.890254 -0.000000 11.470365
LeftHand -19.297209 -0.000000 19.868195
LeftHandThumb1 -26.253704 0.000000 33.147579
Head -31.968078 6.433601 37.181149
292
root -1.264857 15.578696 -2.568117 51.963112 -26.704805 18.961198
RightUpLeg -176.246410 -44.088003 37.222864
RightLeg 102.268307 -0.000000 -0.000000
RightFoot 1.466598 27.329251 29.502480
RightToeBase 26.109384 -0.000000 -0.000000
LeftUpLeg -32.628951 39.522039 16.878776
LeftLeg 10.560060 -0.000000 -0.000000
LeftFoot -22.709483 -2.938919 -26.043760
LeftToeBase 4.399956 -0.000000 -0.000000
Spine -33.447030 21.129344 19.081778
RightShoulder -11.955445 20.153592 -16.613775
RightArm -3.549822 -19.395810 60.346667
RightForeArm 11.564505 -0.000000 3.125025
RightHand 43.100109 -0.000000 -61.583998
RightHandThumb1 -24.326973 -0.000000 -32.862282
LeftShoulder -22.047523 -12.852288 65.384811
LeftArm 43.218583 -40.167205 -11.844652
LeftForeArm 9.774902 -0.000000 11.344049
LeftHand -19.320754 -0.000000 20.054047
LeftHandThumb1 -26.253704 0.000000 33.147579
Head -31.945179 6.075115 38.176506
293
root -1.249729 15.585792 -2.550890 51.720829 -26.647122 19.030656
RightUpLeg -176.299472 -44.051101 37.364065
RightLeg 102.088191 -0.000000 -0.000000
RightFoot 1.661439 26.895648 29.810015
RightToeBase 27.473449 -0.000000 -0.000000
LeftUpLeg -32.415611 39.320927 17.013309
LeftLeg 10.614733 -0.000000 -0.000000
LeftFoot -22.839613 -2.901547 -25.939594
LeftToeBase 4.431156 -0.000000 -0.000000
Spine -33.394478 20.992294 19.239944
RightShoulder -12.033089 20.006833 -16.594478
RightArm -3.146523 -19.646179 60.163739
RightForeArm 11.652647 -0.000000 2.863583
RightHand 43.191790 -0.000000 -61.214895
RightHandThumb1 -24.326973 -0.000000 -32.862282
LeftShoulder -22.010194 -13.351432 65.919584
LeftArm 43.858559 -40.658326 -11.684371
LeftForeArm 9.817343 -0.000000 11.383315
LeftHand -19.319518 -0.000000 20.182767
LeftHandThumb1 -26.253704 0.000000 33.147579
Head -31.778779 5.702430 39.141788
